<svg width="81" height="81" viewBox="0 0 81 81" fill="none" xmlns="http://www.w3.org/2000/svg">
<path d="M54 17H58V30H70V39H77V77H6V7H12V0H54V17Z" fill="white"/>
<path d="M73.305 34.7288V23.1356H69.4322V27.0084H61.7372V19.2881H65.5847V15.4406H57.8644V7.72031H54.0169V0H11.5931V3.8475H3.87281V34.7288H0V81H81V34.7288H73.305ZM57.8644 19.2881V30.8559H69.4322V34.7288H38.5762V19.2881H57.8644ZM7.72031 7.72031H11.5931V34.7288H7.72031V7.72031ZM23.1609 46.2966H19.2881V50.1441H11.5931V46.2966H7.72031V42.4238H23.1609V46.2966ZM23.1609 34.7288H15.4406V3.8475H50.1441V7.72031H23.1609V34.7288ZM27.0084 11.5678H54.0169V15.4406H34.7288V34.7288H27.0084V11.5678ZM77.1525 77.1525H30.8812V38.5762H77.1525V77.1525Z" fill="#98708E"/>
<path d="M73.3049 57.8644H69.4321V61.7119H73.3049V57.8644Z" fill="#98708E"/>
<path d="M69.4322 19.2881H65.5847V23.1356H69.4322V19.2881Z" fill="#98708E"/>
<path d="M54.0169 57.8644H50.144V61.7119H54.0169V57.8644Z" fill="#98708E"/>
</svg>
